<svg xmlns="http://www.w3.org/2000/svg" xmlns:xlink="http://www.w3.org/1999/xlink" width="500" zoomAndPan="magnify" viewBox="0 0 375 374.999991" height="500" preserveAspectRatio="xMidYMid meet" version="1.0"><defs><g/><clipPath id="595cd4be12"><path d="M 0.679688 0.320312 L 197 0.320312 L 197 257 L 0.679688 257 Z M 0.679688 0.320312 " clip-rule="nonzero"/></clipPath><clipPath id="12f6c6eb55"><rect x="0" width="197" y="0" height="257"/></clipPath><clipPath id="3bd43d31e4"><path d="M 55 124 L 201.558594 124 L 201.558594 365 L 55 365 Z M 55 124 " clip-rule="nonzero"/></clipPath><clipPath id="db606a6a81"><rect x="0" width="147" y="0" height="241"/></clipPath><clipPath id="405a5cfaa6"><rect x="0" width="202" y="0" height="365"/></clipPath></defs><g transform="matrix(1, 0, 0, 1, 91, 10)"><g clip-path="url(#405a5cfaa6)"><g clip-path="url(#595cd4be12)"><g transform="matrix(1, 0, 0, 1, -0.000000000000014211, 0)"><g clip-path="url(#12f6c6eb55)"><g fill="#1a1919" fill-opacity="1"><g transform="translate(1.302249, 179.652341)"><g><path d="M 192.75 32.125 C 186.800781 34.84375 180.722656 36.796875 174.515625 37.984375 C 168.316406 39.179688 161.988281 39.78125 155.53125 39.78125 C 142.945312 39.78125 132.742188 37.65625 124.921875 33.40625 C 117.109375 29.15625 110.820312 23.671875 106.0625 16.953125 C 101.300781 10.242188 97.5625 2.769531 94.84375 -5.46875 C 92.125 -13.71875 89.53125 -21.796875 87.0625 -29.703125 C 84.601562 -37.609375 81.757812 -44.875 78.53125 -51.5 C 75.300781 -58.132812 70.796875 -63.234375 65.015625 -66.796875 C 63.660156 -67.484375 62.472656 -67.828125 61.453125 -67.828125 C 60.765625 -67.828125 59.785156 -67.316406 58.515625 -66.296875 C 57.242188 -65.273438 55.96875 -64.082031 54.6875 -62.71875 C 53.414062 -61.363281 52.179688 -60.003906 50.984375 -58.640625 C 49.796875 -57.285156 48.945312 -56.265625 48.4375 -55.578125 C 47.082031 -54.222656 46.148438 -53.160156 45.640625 -52.390625 C 45.128906 -51.628906 44.875 -50.3125 44.875 -48.4375 L 44.875 -20.65625 C 44.875 -16.40625 45.59375 -12.28125 47.03125 -8.28125 C 48.476562 -4.289062 51.414062 -1.53125 55.84375 0 L 8.671875 0 C 13.253906 -1.53125 16.222656 -4.375 17.578125 -8.53125 C 18.941406 -12.695312 19.625 -16.90625 19.625 -21.15625 L 19.625 -105.5625 C 19.625 -109.8125 18.898438 -113.757812 17.453125 -117.40625 C 16.015625 -121.0625 13.085938 -123.570312 8.671875 -124.9375 L 55.84375 -124.9375 C 51.414062 -123.40625 48.476562 -120.851562 47.03125 -117.28125 C 45.59375 -113.71875 44.875 -109.8125 44.875 -105.5625 L 44.875 -55.078125 L 89.234375 -103 C 90.597656 -104.363281 91.660156 -105.894531 92.421875 -107.59375 C 93.191406 -109.289062 93.578125 -111.078125 93.578125 -112.953125 C 93.578125 -115.328125 92.894531 -117.703125 91.53125 -120.078125 C 90.175781 -122.460938 88.304688 -124.082031 85.921875 -124.9375 L 120.34375 -124.9375 C 116.601562 -123.40625 112.015625 -120.425781 106.578125 -116 C 101.140625 -111.582031 95.695312 -106.613281 90.25 -101.09375 C 84.8125 -95.570312 79.671875 -90.085938 74.828125 -84.640625 C 69.984375 -79.203125 66.203125 -74.785156 63.484375 -71.390625 L 62.984375 -70.625 C 62.984375 -70.113281 63.234375 -69.6875 63.734375 -69.34375 C 70.710938 -65.4375 76.832031 -60.210938 82.09375 -53.671875 C 87.363281 -47.128906 92.335938 -40.03125 97.015625 -32.375 C 101.691406 -24.726562 106.28125 -16.953125 110.78125 -9.046875 C 115.289062 -1.148438 120.304688 5.984375 125.828125 12.359375 C 131.347656 18.734375 137.59375 23.914062 144.5625 27.90625 C 151.53125 31.90625 159.859375 33.90625 169.546875 33.90625 C 177.203125 33.90625 184.9375 32.546875 192.75 29.828125 Z M 192.75 32.125 "/></g></g></g></g></g></g><g clip-path="url(#3bd43d31e4)"><g transform="matrix(1, 0, 0, 1, 55, 124)"><g clip-path="url(#db606a6a81)"><g fill="#1a1919" fill-opacity="1"><g transform="translate(1.51194, 179.638407)"><g><path d="M 137.6875 -73.4375 C 133.4375 -72.070312 130.585938 -69.5625 129.140625 -65.90625 C 127.691406 -62.25 126.96875 -58.46875 126.96875 -54.5625 L 126.96875 1.015625 C 125.613281 -1.023438 123.957031 -2.894531 122 -4.59375 C 120.050781 -6.289062 117.710938 -7.140625 114.984375 -7.140625 C 111.585938 -7.140625 108.234375 -6.710938 104.921875 -5.859375 C 101.609375 -5.015625 98.289062 -4.082031 94.96875 -3.0625 C 91.65625 -2.039062 88.300781 -1.101562 84.90625 -0.25 C 81.507812 0.59375 78.023438 1.015625 74.453125 1.015625 C 64.585938 1.015625 55.660156 -1.234375 47.671875 -5.734375 C 39.691406 -10.242188 32.851562 -16.066406 27.15625 -23.203125 C 21.457031 -30.335938 17.078125 -38.410156 14.015625 -47.421875 C 10.960938 -56.429688 9.4375 -65.523438 9.4375 -74.703125 C 9.4375 -84.222656 11.175781 -93.1875 14.65625 -101.59375 C 18.144531 -110.007812 22.945312 -117.445312 29.0625 -123.90625 C 35.1875 -130.375 42.410156 -135.476562 50.734375 -139.21875 C 59.066406 -142.957031 67.992188 -144.828125 77.515625 -144.828125 C 80.054688 -144.828125 83.28125 -144.828125 87.1875 -144.828125 C 91.101562 -144.828125 95.015625 -145.082031 98.921875 -145.59375 C 102.835938 -146.101562 106.410156 -147.035156 109.640625 -148.390625 C 112.867188 -149.753906 115.078125 -151.796875 116.265625 -154.515625 L 122.890625 -113.203125 C 121.359375 -117.285156 119.191406 -121.148438 116.390625 -124.796875 C 113.585938 -128.453125 110.359375 -131.597656 106.703125 -134.234375 C 103.046875 -136.867188 99.09375 -138.953125 94.84375 -140.484375 C 90.59375 -142.015625 86.257812 -142.78125 81.84375 -142.78125 C 71.132812 -142.78125 62.757812 -140.613281 56.71875 -136.28125 C 50.6875 -131.945312 46.226562 -126.378906 43.34375 -119.578125 C 40.457031 -112.773438 38.710938 -105.164062 38.109375 -96.75 C 37.515625 -88.34375 37.21875 -79.972656 37.21875 -71.640625 C 37.21875 -65.523438 37.898438 -58.472656 39.265625 -50.484375 C 40.628906 -42.492188 42.878906 -34.882812 46.015625 -27.65625 C 49.160156 -20.4375 53.367188 -14.363281 58.640625 -9.4375 C 63.910156 -4.507812 70.457031 -2.046875 78.28125 -2.046875 C 85.582031 -2.046875 91.316406 -4.335938 95.484375 -8.921875 C 99.648438 -13.515625 101.734375 -19.378906 101.734375 -26.515625 L 101.734375 -54.5625 C 101.734375 -58.644531 100.96875 -62.46875 99.4375 -66.03125 C 97.90625 -69.601562 95.015625 -72.070312 90.765625 -73.4375 Z M 137.6875 -73.4375 "/></g></g></g></g></g></g></g></g></svg>